<svg version="1.1" id="Layer_1" xmlns="http://www.w3.org/2000/svg" xmlns:xlink="http://www.w3.org/1999/xlink" x="0px" y="0px"
	 width="100%" viewBox="0 0 750 479" enable-background="new 0 0 750 479" xml:space="preserve">
<path fill="#FF7C1F" opacity="1.000000" stroke="none" 
	d="
M230.000000,480.000000 
	C199.976669,480.000000 169.953354,480.000000 139.731018,479.615845 
	C138.682877,478.824127 137.864761,478.151703 136.980072,478.048248 
	C119.448837,475.997955 101.811859,474.627167 84.399864,471.844788 
	C66.638054,469.006561 49.048214,465.008392 31.475605,461.101837 
	C21.223370,458.822693 11.152477,455.727875 1.000000,453.000000 
	C1.000000,302.373566 1.000000,151.747116 1.000000,1.060335 
	C250.893005,1.060335 500.786041,1.060335 751.000000,1.060335 
	C751.000000,138.023163 751.000000,275.046570 750.610718,412.543640 
	C730.924500,419.429352 711.304810,424.560577 691.083252,426.953918 
	C674.813599,428.879547 658.514221,431.300446 642.180664,431.739929 
	C624.363159,432.219452 606.470093,431.002930 588.650330,429.883881 
	C577.406494,429.177795 566.115967,427.926697 555.057861,425.813293 
	C529.366455,420.903351 504.249756,413.856293 480.051239,403.715851 
	C477.960510,402.839722 474.696777,403.059540 472.652435,404.098053 
	C466.729065,407.107056 461.138367,410.774506 455.437256,414.216827 
	C433.777130,427.294952 410.771301,437.490845 387.008087,446.027771 
	C353.608185,458.026672 319.509247,467.355743 284.258911,471.996765 
	C267.232544,474.238434 250.141174,475.984589 233.093369,478.070404 
	C231.999924,478.204193 231.028305,479.333710 230.000000,480.000000 
z"/>
<path fill="#000000" opacity="1.000000" stroke="none" 
	d="
M230.468658,480.000000 
	C231.028305,479.333710 231.999924,478.204193 233.093369,478.070404 
	C250.141174,475.984589 267.232544,474.238434 284.258911,471.996765 
	C319.509247,467.355743 353.608185,458.026672 387.008087,446.027771 
	C410.771301,437.490845 433.777130,427.294952 455.437256,414.216827 
	C461.138367,410.774506 466.729065,407.107056 472.652435,404.098053 
	C474.696777,403.059540 477.960510,402.839722 480.051239,403.715851 
	C504.249756,413.856293 529.366455,420.903351 555.057861,425.813293 
	C566.115967,427.926697 577.406494,429.177795 588.650330,429.883881 
	C606.470093,431.002930 624.363159,432.219452 642.180664,431.739929 
	C658.514221,431.300446 674.813599,428.879547 691.083252,426.953918 
	C711.304810,424.560577 730.924500,419.429352 750.610718,413.008667 
	C751.000000,435.316711 751.000000,457.633423 751.000000,480.000000 
	C577.645752,480.000000 404.291534,480.000000 230.468658,480.000000 
z"/>
<path fill="#000000" opacity="1.000000" stroke="none" 
	d="
M1.000000,453.468658 
	C11.152477,455.727875 21.223370,458.822693 31.475605,461.101837 
	C49.048214,465.008392 66.638054,469.006561 84.399864,471.844788 
	C101.811859,474.627167 119.448837,475.997955 136.980072,478.048248 
	C137.864761,478.151703 138.682877,478.824127 139.265991,479.615845 
	C93.122284,480.000000 47.244568,480.000000 1.000000,480.000000 
	C1.000000,471.315887 1.000000,462.626587 1.000000,453.468658 
z"/>
</svg>