<svg version="1.1" id="Layer_1" xmlns="http://www.w3.org/2000/svg" xmlns:xlink="http://www.w3.org/1999/xlink" x="0px" y="0px"
	 width="100%" viewBox="0 0 750 479" enable-background="new 0 0 750 479" xml:space="preserve">
<path fill="#423665" opacity="1.000000" stroke="none" 
	d="
M230.000000,480.000000 
	C199.976669,480.000000 169.953354,480.000000 139.364716,479.602051 
	C137.963455,478.816498 137.153824,478.168335 136.287582,478.080872 
	C125.790253,477.020966 115.202827,476.565216 104.798409,474.934326 
	C84.314011,471.723358 63.835934,468.326996 43.536400,464.130890 
	C29.203089,461.168091 15.168148,456.761841 0.999999,453.000000 
	C1.000000,302.373566 1.000000,151.747116 1.000000,1.060335 
	C250.893005,1.060335 500.786041,1.060335 751.000000,1.060335 
	C751.000000,138.023163 751.000000,275.046570 750.621094,412.571289 
	C730.712097,419.410889 710.847961,424.203186 690.494446,427.190918 
	C669.959045,430.205261 649.393494,432.290253 628.631470,431.967804 
	C619.671570,431.828674 610.679749,431.741272 601.768433,430.917236 
	C585.972046,429.456573 570.108521,428.148712 554.485535,425.515930 
	C528.969238,421.215942 504.314880,413.602234 480.289246,403.916382 
	C477.951019,402.973755 474.129822,403.292145 471.998779,404.625854 
	C449.883820,418.466339 426.836456,430.444153 402.610840,440.105011 
	C373.505310,451.711884 343.625427,460.781647 312.904419,467.053772 
	C286.470215,472.450653 259.885284,476.683411 232.901566,478.108765 
	C231.903854,478.161499 230.965836,479.344025 230.000000,480.000000 
z"/>
<path fill="#000000" opacity="1.000000" stroke="none" 
	d="
M230.468658,480.000000 
	C230.965836,479.344025 231.903854,478.161499 232.901566,478.108765 
	C259.885284,476.683411 286.470215,472.450653 312.904419,467.053772 
	C343.625427,460.781647 373.505310,451.711884 402.610840,440.105011 
	C426.836456,430.444153 449.883820,418.466339 471.998779,404.625854 
	C474.129822,403.292145 477.951019,402.973755 480.289246,403.916382 
	C504.314880,413.602234 528.969238,421.215942 554.485535,425.515930 
	C570.108521,428.148712 585.972046,429.456573 601.768433,430.917236 
	C610.679749,431.741272 619.671570,431.828674 628.631470,431.967804 
	C649.393494,432.290253 669.959045,430.205261 690.494446,427.190918 
	C710.847961,424.203186 730.712097,419.410889 750.621094,413.036285 
	C751.000000,435.316711 751.000000,457.633423 751.000000,480.000000 
	C577.645752,480.000000 404.291534,480.000000 230.468658,480.000000 
z"/>
<path fill="#000000" opacity="1.000000" stroke="none" 
	d="
M0.999999,453.468658 
	C15.168148,456.761841 29.203089,461.168091 43.536400,464.130890 
	C63.835934,468.326996 84.314011,471.723358 104.798409,474.934326 
	C115.202827,476.565216 125.790253,477.020966 136.287582,478.080872 
	C137.153824,478.168335 137.963455,478.816498 138.899689,479.602051 
	C93.122284,480.000000 47.244568,480.000000 1.000000,480.000000 
	C1.000000,471.315887 1.000000,462.626587 0.999999,453.468658 
z"/>
</svg>