<svg
  width="44"
  height="42"
  viewBox="0 0 44 42"
  xmlns="http://www.w3.org/2000/svg"
  fill="currentColor"
>
  <path
    d="M19.2566 1.304C20.4482 -0.43472 23.0142 -0.43472 24.2058 1.304L29.9449 9.67801C30.335 10.2472 30.9094 10.6645 31.5713 10.8596L41.3089 13.7301C43.3307 14.3261 44.1237 16.7665 42.8383 18.4371L36.6476 26.483C36.2268 27.0299 36.0074 27.7051 36.0264 28.3949L36.3055 38.543C36.3634 40.65 34.2875 42.1583 32.3015 41.452L22.7363 38.0507C22.0862 37.8195 21.3762 37.8195 20.7261 38.0507L11.1609 41.452C9.17489 42.1583 7.09897 40.65 7.15692 38.543L7.43602 28.3949C7.455 27.7051 7.2356 27.0299 6.81481 26.483L0.624128 18.4371C-0.66126 16.7665 0.131675 14.3261 2.15352 13.7301L11.8912 10.8596C12.553 10.6645 13.1274 10.2472 13.5175 9.67801L19.2566 1.304Z"
  />
</svg>
